<svg xmlns="http://www.w3.org/2000/svg" xml:space="preserve" id="technology-power-query__Layer_1" width="30" height="30" x="0" y="0" viewBox="0 0 30 30"><path id="technology-power-query__path20283" fill="#fafafa" d="M7.5 8.76V.5h18V11l-.066.076c-.051-.352-.09-.721-.107-1.127L25.288 9h-3.586l-.029.962c-.028.902-.14 1.672-.334 2.289-.169.539-.416.966-.754 1.303-.334.327-.769.578-1.319.759-.623.202-1.404.324-2.317.36l-.949.038v.789h-1v-3.61c-.898-1.966-4.155-3.033-7.5-3.13m16 12.224.516-.891a7.7 7.7 0 0 1 1.281-1.672 7.4 7.4 0 0 1 1.719-1.266l.938-.531-.938-.516a8 8 0 0 1-1.734-1.281 7.2 7.2 0 0 1-1.312-1.719l-.516-.938-.531.938a7.8 7.8 0 0 1-2.969 2.984l-.906.5.891.531a8 8 0 0 1 3.031 2.969zM13 24.529V13c0-.705-2.278-2-6-2s-6 1.295-6 2v12c0 .705 2.278 2 6 2 1.755 0 3.173-.292 4.199-.67z"/><path id="technology-power-query__rect20285" fill="#c8c6c4" d="M7.5.5h18v3h-18z"/><path id="technology-power-query__path20287" fill="#1e8bcd" d="M26.5 22.5q.657-.172 1-.5.328-.343.5-1 .172.657.516 1 .328.328.984.5-.657.172-.984.516-.344.327-.516.984-.172-.657-.5-.984-.343-.344-1-.516m-2 4q.657-.172 1-.5.328-.343.5-1 .141.39.297.656.14.266.328.438.172.172.391.266.203.093.484.141-.657.172-.984.516-.344.326-.516.983-.172-.657-.5-.984-.343-.344-1-.516M24.078 10q.063 1.532.422 2.625.343 1.094 1.062 1.812.704.719 1.797 1.078 1.093.343 2.641.391v1.172q-1.546.062-2.641.422-1.11.36-1.812 1.078-.718.704-1.062 1.797-.36 1.093-.406 2.625h-1.188q-.093-2.657-1.141-4.031L10.875 29.844a.62.62 0 0 1-.406.156.48.48 0 0 1-.328-.125.42.42 0 0 1-.141-.328q0-.25.188-.438L21.047 18.25q-.703-.547-1.703-.828T17 17.078v-1.156q1.547-.062 2.656-.422 1.093-.36 1.812-1.062.718-.718 1.062-1.812.343-1.093.391-2.625zm-.594 10.25q.421-1.469 1.344-2.375.906-.922 2.375-1.375-1.453-.422-2.344-1.312-.906-.906-1.359-2.359-.86 2.813-3.75 3.672 1.469.453 2.375 1.375.906.905 1.359 2.374"/><path id="technology-power-query__path20289" fill="#3a3a38" d="M11.199 26.33C10.173 26.708 8.755 27 7 27c-3.722 0-6-1.295-6-2V14.539C2.223 15.413 4.449 16 7 16s4.777-.587 6-1.461v9.99l1-1V13c0-1.657-3.134-3-7-3s-7 1.343-7 3v12c0 1.657 3.134 3 7 3 .986 0 1.924-.088 2.775-.246zM7 11c3.722 0 6 1.295 6 2s-2.278 2-6 2-6-1.295-6-2 2.278-2 6-2m6-1q.56.294 1 .656V8h5v3h-4.627c.263.273.48.568.627.89V12h4v2.385c.089-.024.183-.046.266-.073A4 4 0 0 0 20 13.99V12h1.405q.12-.453.187-1H20V8h5v1h.288l.039.949q.055 1.353.365 2.301.124.393.307.711V0H7v8.75q.502.002 1 .032V8h5zm6-3h-5V4h5zm6 0h-5V4h5zM8 1h17v2H8Zm0 6V4h5v3zm8 9h-1v-1h1z"/></svg>