<svg xmlns="http://www.w3.org/2000/svg" width="96" height="96" fill="none" viewBox="0 0 96 96"><defs><linearGradient id="technology-power-automate__paint0_linear" x1="43" x2="29" y1="55" y2="10" gradientUnits="userSpaceOnUse"><stop stop-color="#0D36A5"/><stop offset="1" stop-color="#1152D4"/></linearGradient><linearGradient id="technology-power-automate__paint1_linear" x1="46" x2="46" y1="10" y2="86" gradientUnits="userSpaceOnUse"><stop stop-color="#84CAFF"/><stop offset="1" stop-color="#61B1FB"/></linearGradient><linearGradient id="technology-power-automate__paint2_linear" x1="37.5" x2="37.5" y1="10" y2="86" gradientUnits="userSpaceOnUse"><stop stop-color="#3B90F5"/><stop offset="1" stop-color="#2A78EE"/></linearGradient><clipPath id="technology-power-automate__clip0"><path fill="white" d="M0 0h96v96H0z"/></clipPath><clipPath id="technology-power-automate__clip1"><path fill="white" d="M0 0h96v96H0z"/></clipPath><filter id="technology-power-automate__filter0_f"><feFlood flood-opacity="0" result="BackgroundImageFix"/><feBlend in="SourceGraphic" in2="BackgroundImageFix" result="shape"/><feGaussianBlur result="effect1_foregroundBlur" stdDeviation=".4"/></filter><filter id="technology-power-automate__filter1_f"><feFlood flood-opacity="0" result="BackgroundImageFix"/><feBlend in="SourceGraphic" in2="BackgroundImageFix" result="shape"/><feGaussianBlur result="effect1_foregroundBlur" stdDeviation="4"/></filter></defs><g clip-path="url(#technology-power-automate__clip0)"><g clip-path="url(#technology-power-automate__clip1)"><mask id="technology-power-automate__mask0" width="97" height="76" x="-1" y="10" mask-type="alpha" maskUnits="userSpaceOnUse"><path fill="white" d="M61.212 10a4 4 0 0 1 2.98 1.333l30.422 34a4 4 0 0 1 0 5.334l-30.422 34A4 4 0 0 1 61.213 86H3.946C.49 86-1.34 81.91.966 79.333L29 48 .965 16.667C-1.34 14.09.49 10 3.946 10z"/></mask><g mask="url(#technology-power-automate__mask0)"><path fill="url(#technology-power-automate__paint0_linear)" d="M63 10 29 48-5 10z"/><g filter="url(#technology-power-automate__filter0_f)"><path fill="black" fill-opacity=".24" d="m63 10.4-68 76h68l34-38z"/></g><g filter="url(#technology-power-automate__filter1_f)"><path fill="black" fill-opacity=".32" d="M63 12-5 88h68l34-38z"/></g><path fill="url(#technology-power-automate__paint1_linear)" d="m-5 86 68-76 34 38-34 38z"/><path fill="url(#technology-power-automate__paint2_linear)" d="m-5 86 68-76 17 19-51 57z"/></g></g></g></svg>