<svg xmlns="http://www.w3.org/2000/svg" width="480" height="96" aria-hidden="true" viewBox="0 0 480 96"><path stroke="#78a50a" stroke-width="2" d="M70 40h340"/><g stroke="#006572"><circle cx="70" cy="40" r="28" fill="#ffffff" stroke-width="2"/><svg xmlns="http://www.w3.org/2000/svg" width="26" height="26" x="57" y="27" fill="none" stroke-linecap="round" stroke-linejoin="round" stroke-width="1.6" aria-hidden="true" class="alignment__lucide alignment__lucide-database" viewBox="0 0 24 24"><ellipse cx="12" cy="5" rx="9" ry="3"/><path d="M3 5v14a9 3 0 0 0 18 0V5"/><path d="M3 12a9 3 0 0 0 18 0"/></svg></g><g stroke="#006572"><circle cx="240" cy="40" r="28" fill="#ffffff" stroke-width="2"/><svg xmlns="http://www.w3.org/2000/svg" width="26" height="26" x="227" y="27" fill="none" stroke-linecap="round" stroke-linejoin="round" stroke-width="1.6" aria-hidden="true" class="alignment__lucide alignment__lucide-code-xml" viewBox="0 0 24 24"><path d="m18 16 4-4-4-4M6 8l-4 4 4 4m8.5-12-5 16"/></svg></g><g stroke="#006572"><circle cx="410" cy="40" r="28" fill="#ffffff" stroke-width="2"/><svg xmlns="http://www.w3.org/2000/svg" width="26" height="26" x="397" y="27" fill="none" stroke-linecap="round" stroke-linejoin="round" stroke-width="1.6" aria-hidden="true" class="alignment__lucide alignment__lucide-users-round" viewBox="0 0 24 24"><path d="M18 21a8 8 0 0 0-16 0"/><circle cx="10" cy="8" r="5"/><path d="M22 20c0-3.37-2-6.5-4-8a5 5 0 0 0-.45-8.3"/></svg></g></svg>