<svg xmlns="http://www.w3.org/2000/svg" width="500" height="320" aria-hidden="true" viewBox="0 0 500 320"><g><path fill="#006572" d="M149 127C170 32 267-5 352 18c81 22 122 109 90 196l-88 78-196-14Z"/><circle cx="190" cy="141" r="135" fill="#78a50a"/><path fill="#008b56" d="M69 240c44-50 115-33 169-8 92-59 154-51 218-6-10 56-112 88-218 83-78-1-145-25-169-69"/><path fill="#008b56" d="M109 280c-61-6-86-48-89-78 47-4 81 28 89 78"/><path fill="#006572" d="M106 269c-34-34-38-86-28-118 33 21 51 77 28 118"/><path fill="none" stroke="#003f5c" stroke-width="2" d="m107 279-66-61m65 49-23-91"/><path fill="#78a50a" d="M446 283c-17-62-5-120 31-146 6 53-10 105-31 146"/><path fill="#008b56" d="M448 285c6-43 30-70 50-74-3 34-21 62-50 74"/><path fill="none" stroke="#006572" stroke-width="2" d="m447 287 21-123m-19 116 36-49"/><path fill="#ffffff" d="M429 273h41l-7 39h-27Z"/><path stroke="#006572" stroke-width="4" d="M429 273h41"/><g><path stroke="#ffa600" stroke-linecap="round" stroke-width="3" d="M338 28V17m-27 23-8-8m62 8 8-8m-70 29h-11m81 0h12"/><path fill="#ffa600" d="M322 76c-21-20-9-44 15-44 25 0 37 24 16 44l-4 12h-23Z"/><path fill="none" stroke="#ffffff" stroke-linecap="round" stroke-width="2" d="M332 86V61l-7-7m17 32V61l7-7m-17 7h10"/><path stroke="#ffffff" stroke-linecap="round" stroke-width="3" d="M327 94h21m-17 8h13"/></g><rect width="326" height="166" x="96" y="141" fill="#ffffff" stroke="#006572" stroke-width="1.5" rx="14"/><circle cx="111" cy="156" r="3" fill="#006572"/><circle cx="123" cy="156" r="3" fill="#78a50a"/><circle cx="135" cy="156" r="3" fill="#ffa600"/><path stroke="#006572" d="M203 173v118m15-52h187"/><g fill="none" stroke-width="17" transform="rotate(-90 184.5 32.5)"><circle r="28" stroke="#006572"/><circle r="28" stroke="#78a50a" stroke-dasharray="44 176"/><circle r="28" stroke="#008b56" stroke-dasharray="42 176" stroke-dashoffset="-44"/><circle r="28" stroke="#ffa600" stroke-dasharray="25 176" stroke-dashoffset="-86"/></g><path stroke="#006572" stroke-linecap="round" stroke-width="4" d="M120 266h60m-60 12h46"/><rect width="18" height="14" x="224" y="218" fill="#006572" rx="2"/><rect width="18" height="31" x="253" y="201" fill="#008b56" rx="2"/><rect width="18" height="26" x="282" y="206" fill="#78a50a" rx="2"/><rect width="18" height="50" x="311" y="182" fill="#006572" rx="2"/><rect width="18" height="46" x="340" y="186" fill="#008b56" rx="2"/><rect width="18" height="65" x="369" y="167" fill="#ffa600" rx="2"/><path fill="none" stroke="#006572" stroke-linejoin="round" stroke-width="2.5" d="m233 208 29-19 29 5 29-24 29 5 29-22"/><circle cx="233" cy="208" r="3.5" fill="#006572"/><circle cx="262" cy="189" r="3.5" fill="#006572"/><circle cx="291" cy="194" r="3.5" fill="#006572"/><circle cx="320" cy="170" r="3.5" fill="#006572"/><circle cx="349" cy="175" r="3.5" fill="#006572"/><circle cx="378" cy="153" r="3.5" fill="#006572"/><rect width="88" height="44" x="216" y="250" fill="none" stroke="#006572" rx="6"/><rect width="93" height="44" x="313" y="250" fill="none" stroke="#006572" rx="6"/><g fill="#006572"><circle cx="226" cy="260" r="2.5"/><rect width="56" height="5" x="234" y="257.5" rx="2.5"/><rect width="69" height="5" x="323" y="257.5" rx="2.5"/></g><g fill="#008b56"><circle cx="226" cy="272" r="2.5"/><rect width="43" height="5" x="234" y="269.5" rx="2.5"/><rect width="54" height="5" x="323" y="269.5" rx="2.5"/></g><g fill="#ffa600"><circle cx="226" cy="284" r="2.5"/><rect width="29" height="5" x="234" y="281.5" rx="2.5"/><rect width="35" height="5" x="323" y="281.5" rx="2.5"/></g></g><svg width="112" height="120" x="156" y="29" viewBox="105 84 440 482"><defs><clipPath id="conversation-similar__owl-silhouette" transform="translate(4.875 4.875)scale(.985)"><path d="M136 89c28 26 54 36 82 43 35-26 71-40 107-40 37 0 74 16 106 40 35-9 62-25 83-43 11 34-6 68-25 85 29 34 41 83 15 129 25 26 37 51 36 81 3 65-55 130-112 143l-72-7q-31 19-62 0l-73 7c-54-15-111-73-112-141-1-32 10-60 35-83-23-43-16-89 16-129-22-19-35-55-24-85"/></clipPath></defs><g id="conversation-similar__owl"><g id="conversation-similar__owl-body" clip-path="url(#conversation-similar__owl-silhouette)"><path id="conversation-similar__head-and-body" fill="#003F5C" d="M105 84h440v430H105z"/><g id="conversation-similar__brows" fill="#006572"><path id="conversation-similar__brow-left" d="M174 132c20 7 40 0 66 9 45 13 72 51 64 104-12-37-33-55-66-62-34-4-60-21-67-45q-3-9 3-6"/><path id="conversation-similar__brow-right" d="M476 132c-20 7-40 0-66 9-45 13-72 51-64 104 12-37 33-55 66-62 34-4 60-21 67-45q3-9-3-6"/></g><g id="conversation-similar__eyes"><ellipse id="conversation-similar__eye-ring-left" cx="233" cy="250" fill="#FFFFFF" rx="69.3" ry="67.7"/><ellipse id="conversation-similar__eye-ring-right" cx="417" cy="250" fill="#FFFFFF" rx="69.3" ry="67.7"/><ellipse id="conversation-similar__pupil-left" cx="240" cy="251" fill="#003F5C" rx="45.2" ry="44.1"/><ellipse id="conversation-similar__pupil-right" cx="410" cy="251" fill="#003F5C" rx="45.2" ry="44.1"/><circle id="conversation-similar__eye-shine-left" cx="254" cy="234" r="12.2" fill="#FFFFFF"/><circle id="conversation-similar__eye-shine-right" cx="395" cy="234" r="12.2" fill="#FFFFFF"/></g><path id="conversation-similar__beak" fill="#FFA600" d="M325 261c10 9 18 17 23 25-3 17-11 34-23 45-12-11-20-28-23-45 5-8 13-16 23-25"/><path id="conversation-similar__belly-wing-join" fill="#FFFFFF" d="M213.345 359 325 360l111.655-1L440 465H210Z"/><g id="conversation-similar__wings" fill="#006572"><path id="conversation-similar__wing-left" d="M145 301c31 8 68 43 82 89 8.4 27.6 0 52 0 72 2 28 19 48 33 59l-39 8c-57-14-112-77-113-143-2-34 12-65 37-85"/><path id="conversation-similar__wing-right" d="M505 301c-31 8-68 43-82 89-8.4 27.6 0 52 0 72-2 28-19 48-33 59l39 8c57-14 112-77 113-143 2-34-12-65-37-85"/><g id="conversation-similar__flight-feathers" fill="#003F5C"><path id="conversation-similar__flight-left" d="M154 355c-11 57 15 125 68 174l39-7c-23-20-31-38-34-60Z"/><path id="conversation-similar__flight-right" d="M496 355c11 57-15 125-68 174l-39-7c23-20 31-38 34-60Z"/></g></g><path id="conversation-similar__belly" fill="#FFFFFF" d="M213.345 359C248 325 291 323 325 359c34-36 77-34 111.655 0-5.61 9.552-10.295 19.959-13.655 31-8.4 27.6 0 52 0 72 0 26-20 58-50 76-23 9-73 9-96 0-30-18-50-50-50-76 0-20 8.4-44.4 0-72-3.36-11.041-8.045-21.448-13.655-31"/><g id="conversation-similar__belly-plumage"><path id="conversation-similar__feather-upper-left" fill="#006572" d="M240 367c25 18 49 19 77 1-3 50-68 50-77-1"/><path id="conversation-similar__feather-upper-right" fill="#006572" d="M333 368c28 18 52 17 77-1-9 51-74 51-77 1"/><path id="conversation-similar__feather-middle-left" fill="#008B56" d="M248 415c23 16 46 16 70 0-3 49-65 48-70 0"/><path id="conversation-similar__feather-middle-right" fill="#008B56" d="M332 415c24 16 47 16 70 0-5 48-67 49-70 0"/><path id="conversation-similar__feather-lower" fill="#78A50A" d="M285 462c26 18 54 18 80 0-7 50-73 50-80 0"/></g></g><g id="conversation-similar__feet" fill="#FFA600" transform="translate(4.875 4.875)scale(.985)"><path id="conversation-similar__foot-left" d="M259.3 519.3C242 506 222 514 216 535c-5 18 3 27 12 27 7 0 14-10 17-18 4 11 7 18 14 18s13-8 15.7-17.7C280 556 286 562 292 562c9 0 13-12 10-21-3-20-19-36-42.7-21.7"/><path id="conversation-similar__foot-right" d="M259.3 519.3C242 506 222 514 216 535c-5 18 3 27 12 27 7 0 14-10 17-18 4 11 7 18 14 18s13-8 15.7-17.7C280 556 286 562 292 562c9 0 13-12 10-21-3-20-19-36-42.7-21.7" transform="matrix(-1 0 0 1 650 0)"/></g></g></svg></svg>