<svg xmlns="http://www.w3.org/2000/svg" width="112" height="72" viewBox="0 0 112 72"><g><g transform="matrix(.27 0 0 .27 2 4)"><rect width="400" height="235" fill="#ffffff" stroke="#006572" stroke-width="2" rx="18"/><path stroke="#006572" d="M0 37h400"/><circle cx="18" cy="19" r="3" fill="#006572"/><circle cx="32" cy="19" r="3" fill="#006572"/><circle cx="46" cy="19" r="3" fill="#006572"/><rect width="110" height="6" x="265" y="15" fill="#006572" rx="3"/><rect width="198" height="171" x="15" y="49" fill="none" stroke="#006572" rx="10"/><rect width="153" height="95" x="228" y="49" fill="none" stroke="#006572" rx="10"/><rect width="153" height="66" x="228" y="154" fill="none" stroke="#006572" rx="10"/><path stroke="#006572" stroke-linecap="round" stroke-width="5" d="M25 76h69M25 87h40"/><g transform="translate(24 78)"><rect width="17" height="36" y="84" fill="#006572" rx="3"/><rect width="17" height="64" x="28" y="56" fill="#008b56" rx="3"/><rect width="17" height="48" x="56" y="72" fill="#006572" rx="3"/><rect width="17" height="89" x="84" y="31" fill="#008b56" rx="3"/><rect width="17" height="74" x="112" y="46" fill="#78a50a" rx="3"/><rect width="17" height="111" x="140" y="9" fill="#ffa600" rx="3"/></g><path fill="none" stroke="#003f5c" stroke-linejoin="round" stroke-width="4" d="m25 161 36-23 33 8 32-35 31 11 33-38"/><circle cx="25" cy="161" r="5" fill="#008b56" stroke="#ffffff" stroke-width="2"/><circle cx="61" cy="138" r="5" fill="#008b56" stroke="#ffffff" stroke-width="2"/><circle cx="94" cy="146" r="5" fill="#008b56" stroke="#ffffff" stroke-width="2"/><circle cx="126" cy="111" r="5" fill="#008b56" stroke="#ffffff" stroke-width="2"/><circle cx="157" cy="122" r="5" fill="#008b56" stroke="#ffffff" stroke-width="2"/><circle cx="190" cy="84" r="5" fill="#ffa600" stroke="#ffffff" stroke-width="2"/><g><g fill="none" stroke-width="15" transform="matrix(0 -.85 .85 0 305 97)"><circle r="31" stroke="#006572"/><circle r="31" stroke="#008b56" stroke-dasharray="76 195"/><circle r="31" stroke="#ffa600" stroke-dasharray="32 195" stroke-dashoffset="-76"/></g></g><rect width="76" height="6" x="244" y="165" fill="#006572" rx="3"/><rect width="56" height="6" x="244" y="181" fill="#008b56" rx="3"/><rect width="88" height="6" x="244" y="197" fill="#78a50a" rx="3"/><path stroke="#006572" d="M24 213h173"/></g></g></svg>